<mxfile host="app.diagrams.net" modified="2024-04-06T09:54:28.637Z" agent="Mozilla/5.0 (Windows NT 10.0; Win64; x64) AppleWebKit/537.36 (KHTML, like Gecko) Chrome/123.0.0.0 Safari/537.36" etag="c7BFpzMg5hIzUdB5Ze0J" version="24.2.2" type="github">
  <diagram name="Page-1" id="6gRFChfrDZaNLQFOG_VP">
    <mxGraphModel dx="1500" dy="746" grid="1" gridSize="10" guides="1" tooltips="1" connect="1" arrows="1" fold="1" page="1" pageScale="1" pageWidth="850" pageHeight="1100" math="0" shadow="0">
      <root>
        <mxCell id="0" />
        <mxCell id="1" parent="0" />
        <mxCell id="xRVITYLAvpXHYNGex6yn-1" value="" style="rounded=0;whiteSpace=wrap;html=1;" vertex="1" parent="1">
          <mxGeometry x="90" y="170" width="380" height="340" as="geometry" />
        </mxCell>
        <mxCell id="xRVITYLAvpXHYNGex6yn-18" style="edgeStyle=orthogonalEdgeStyle;rounded=0;orthogonalLoop=1;jettySize=auto;html=1;entryX=0;entryY=0.5;entryDx=0;entryDy=0;endArrow=none;endFill=0;" edge="1" parent="1" source="xRVITYLAvpXHYNGex6yn-2" target="xRVITYLAvpXHYNGex6yn-5">
          <mxGeometry relative="1" as="geometry" />
        </mxCell>
        <mxCell id="xRVITYLAvpXHYNGex6yn-2" value="Patient&lt;div&gt;&lt;br&gt;&lt;/div&gt;" style="shape=umlActor;verticalLabelPosition=bottom;verticalAlign=top;html=1;outlineConnect=0;" vertex="1" parent="1">
          <mxGeometry x="40" y="250" width="30" height="60" as="geometry" />
        </mxCell>
        <mxCell id="xRVITYLAvpXHYNGex6yn-4" value="" style="edgeStyle=orthogonalEdgeStyle;rounded=0;orthogonalLoop=1;jettySize=auto;html=1;endArrow=none;endFill=0;" edge="1" parent="1" source="xRVITYLAvpXHYNGex6yn-5" target="xRVITYLAvpXHYNGex6yn-7">
          <mxGeometry relative="1" as="geometry" />
        </mxCell>
        <mxCell id="xRVITYLAvpXHYNGex6yn-5" value="&lt;div style=&quot;&quot;&gt;&lt;span style=&quot;background-color: initial;&quot;&gt;Navigate to family account section&lt;/span&gt;&lt;/div&gt;" style="ellipse;whiteSpace=wrap;html=1;verticalAlign=middle;align=center;" vertex="1" parent="1">
          <mxGeometry x="125" y="240" width="115" height="80" as="geometry" />
        </mxCell>
        <mxCell id="xRVITYLAvpXHYNGex6yn-6" value="" style="edgeStyle=orthogonalEdgeStyle;rounded=0;orthogonalLoop=1;jettySize=auto;html=1;endArrow=none;endFill=0;" edge="1" parent="1" source="xRVITYLAvpXHYNGex6yn-7" target="xRVITYLAvpXHYNGex6yn-10">
          <mxGeometry relative="1" as="geometry" />
        </mxCell>
        <mxCell id="xRVITYLAvpXHYNGex6yn-7" value="Add new family member" style="ellipse;whiteSpace=wrap;html=1;verticalAlign=middle;" vertex="1" parent="1">
          <mxGeometry x="320" y="240" width="115" height="80" as="geometry" />
        </mxCell>
        <mxCell id="xRVITYLAvpXHYNGex6yn-10" value="New family member is created and linked to the main account" style="ellipse;whiteSpace=wrap;html=1;verticalAlign=middle;spacingLeft=5;" vertex="1" parent="1">
          <mxGeometry x="315" y="390" width="125" height="90" as="geometry" />
        </mxCell>
      </root>
    </mxGraphModel>
  </diagram>
</mxfile>
